<svg width="1266" height="245" viewBox="0 0 1266 245" fill="none" xmlns="http://www.w3.org/2000/svg">
<g opacity="0.3">
<path d="M1119.03 173.86L1117.84 171.103C1115.99 171.638 1114.07 172.108 1112.17 172.481L1112.98 175.336C1115.02 174.914 1117.05 174.428 1119.03 173.86Z" fill="white"/>
<path d="M1106.76 176.261L1106.36 173.341C1104.41 173.552 1102.44 173.666 1100.48 173.698L1100.49 176.634C1102.59 176.601 1104.7 176.472 1106.76 176.261Z" fill="white"/>
<path d="M1094.58 173.569C1092.65 173.439 1090.68 173.228 1088.75 172.92L1088 175.807C1090.07 176.115 1092.15 176.359 1094.21 176.488L1094.58 173.569Z" fill="white"/>
<path d="M1130.41 169.433L1128.55 166.935C1126.86 167.778 1125.09 168.541 1123.33 169.238L1124.87 171.882C1126.74 171.152 1128.61 170.325 1130.41 169.433Z" fill="white"/>
<path d="M1149.08 155.922L1146.22 154.138C1144.97 155.419 1143.65 156.636 1142.32 157.803L1144.98 159.782C1146.4 158.549 1147.78 157.252 1149.08 155.922Z" fill="white"/>
<path d="M1140.5 163.334L1138.06 161.177C1136.58 162.264 1135.02 163.286 1133.47 164.243L1135.64 166.578C1137.3 165.573 1138.94 164.47 1140.5 163.334Z" fill="white"/>
<path d="M1053.13 157.089C1051.75 156.003 1050.37 154.851 1049.04 153.651L1046.29 155.646C1047.68 156.879 1049.1 158.079 1050.55 159.214L1053.13 157.089Z" fill="white"/>
<path d="M1045.21 150.018C1043.99 148.801 1042.77 147.52 1041.62 146.206L1038.63 147.942C1039.83 149.288 1041.08 150.602 1042.33 151.867L1045.21 150.018Z" fill="white"/>
<path d="M1161.6 138.535L1158.22 137.448C1157.44 138.957 1156.61 140.433 1155.75 141.86L1159.03 143.109C1159.92 141.633 1160.8 140.092 1161.6 138.535Z" fill="white"/>
<path d="M1035.17 143.887L1038.25 142.265L1037.7 141.568C1036.81 140.433 1035.85 139.281 1034.86 138.178L1031.85 139.897C1032.8 140.968 1033.72 142.071 1034.58 143.174L1035.17 143.887Z" fill="white"/>
<path d="M1083.03 171.8C1081.18 171.362 1079.31 170.827 1077.48 170.243L1076.05 172.968C1077.98 173.6 1079.96 174.152 1081.93 174.622L1083.03 171.8Z" fill="white"/>
<path d="M1062.11 163.269C1060.55 162.344 1059 161.355 1057.5 160.317L1055.08 162.555C1056.66 163.642 1058.28 164.68 1059.91 165.637L1062.11 163.269Z" fill="white"/>
<path d="M1072.12 168.265C1070.4 167.551 1068.68 166.772 1066.99 165.929L1065 168.427C1066.78 169.319 1068.58 170.146 1070.4 170.876L1072.12 168.265Z" fill="white"/>
<path d="M1168.52 119.363L1164.91 118.893C1164.55 120.482 1164.13 122.072 1163.69 123.629L1167.25 124.245C1167.72 122.639 1168.14 121.001 1168.52 119.363Z" fill="white"/>
<path d="M883.076 167.698C882.962 166.124 882.8 164.47 882.621 162.783L878.983 163.091C879.161 164.746 879.308 166.384 879.421 167.925L883.076 167.698Z" fill="white"/>
<path d="M883.336 177.591C883.385 176.05 883.401 174.379 883.336 172.628L879.681 172.757C879.73 174.46 879.73 176.082 879.681 177.575L883.336 177.591Z" fill="white"/>
<path d="M1165.69 129.078L1162.18 128.316C1161.61 129.873 1161.01 131.43 1160.36 132.922L1163.82 133.847C1164.49 132.306 1165.12 130.7 1165.69 129.078Z" fill="white"/>
<path d="M1189.11 79.6901C1189.73 79.1062 1190.36 78.5547 1191.01 78.0032V74.3701L1190.72 74.1105C1189.23 75.2621 1187.75 76.4948 1186.37 77.7924L1189.11 79.6901Z" fill="white"/>
<path d="M1174.53 100.597L1171.08 99.6559C1170.4 101.181 1169.75 102.77 1169.13 104.392L1172.63 105.187C1173.23 103.613 1173.86 102.073 1174.53 100.597Z" fill="white"/>
<path d="M1031.17 134.236C1029.91 132.955 1028.57 131.69 1027.21 130.474L1024.46 132.452C1025.78 133.636 1027.08 134.853 1028.3 136.086L1031.17 134.236Z" fill="white"/>
<path d="M1171.02 109.859L1167.48 109.194C1166.99 110.767 1166.52 112.389 1166.08 114.043L1169.65 114.595C1170.08 112.973 1170.53 111.383 1171.02 109.859Z" fill="white"/>
<path d="M1179.24 91.7086L1175.97 90.4273C1175.06 91.887 1174.17 93.4117 1173.34 94.985L1176.7 96.0879C1177.52 94.5795 1178.36 93.1035 1179.24 91.7086Z" fill="white"/>
<path d="M1185.43 83.4695L1182.47 81.7827C1181.27 83.1289 1180.11 84.5562 1179.03 86.016L1182.16 87.4919C1183.18 86.0971 1184.29 84.7346 1185.43 83.4695Z" fill="white"/>
<path d="M1156.09 147.553L1152.92 146.126C1151.92 147.537 1150.86 148.915 1149.76 150.229L1152.78 151.835C1153.93 150.456 1155.05 149.013 1156.09 147.553Z" fill="white"/>
<path d="M868.004 194.897C866.396 194.832 864.593 194.557 862.497 194.038L861.36 196.844C863.748 197.444 865.844 197.768 867.744 197.833L868.004 194.897Z" fill="white"/>
<path d="M881.68 143.482L878.025 143.336C877.879 144.958 877.814 146.628 877.798 148.315L881.452 148.267C881.469 146.661 881.533 145.055 881.68 143.482Z" fill="white"/>
<path d="M835.275 183.836C833.245 183.09 831.393 182.457 829.623 181.89L828.226 184.631C829.948 185.182 831.734 185.798 833.7 186.528L835.275 183.836Z" fill="white"/>
<path d="M844.5 190.794L846.206 188.166L845.784 187.988C844.143 187.323 842.47 186.642 840.781 185.961L839.108 188.588C840.781 189.253 842.438 189.934 844.078 190.599L844.5 190.794Z" fill="white"/>
<path d="M882.037 157.9C881.842 156.278 881.68 154.656 881.582 153.099L877.928 153.294C878.025 154.9 878.187 156.57 878.382 158.241L882.037 157.9Z" fill="white"/>
<path d="M879.568 192.594L876.385 191.199C875.443 192.562 874.305 193.518 872.941 194.119L874.647 196.698C876.628 195.838 878.285 194.443 879.568 192.594Z" fill="white"/>
<path d="M882.93 182.603L879.291 182.343C879.064 184.062 878.739 185.619 878.317 186.982L881.874 187.631C882.329 186.138 882.686 184.452 882.93 182.603Z" fill="white"/>
<path d="M857.008 192.367C855.432 191.816 853.662 191.151 851.599 190.34L849.926 192.983C852.054 193.827 853.873 194.508 855.497 195.06L857.008 192.367Z" fill="white"/>
<path d="M786.208 198.238L782.846 197.135C782.115 198.53 781.351 200.103 780.588 201.806L784.031 202.747C784.762 201.109 785.493 199.584 786.208 198.238Z" fill="white"/>
<path d="M791.941 189.95L789.018 188.231C787.816 189.529 786.662 190.988 785.574 192.562L788.774 193.94C789.781 192.481 790.837 191.134 791.941 189.95Z" fill="white"/>
<path d="M782.082 207.386L778.59 206.543C777.81 208.522 777.193 210.225 776.803 211.312L780.328 212.058C780.701 211.003 781.319 209.317 782.082 207.386Z" fill="white"/>
<path d="M823.76 180.235C821.632 179.716 819.585 179.326 817.636 179.051L816.954 181.954C818.741 182.197 820.657 182.57 822.639 183.041L823.76 180.235Z" fill="white"/>
<path d="M811.22 181.565L811.253 178.629C810.798 178.629 810.327 178.645 809.872 178.662C808.118 178.743 806.396 178.937 804.772 179.262L805.584 182.116C807.371 181.76 809.304 181.581 811.22 181.565Z" fill="white"/>
<path d="M800.371 183.771L798.633 181.208C796.765 182.035 794.978 183.09 793.321 184.339L795.774 186.479C797.236 185.393 798.779 184.484 800.371 183.771Z" fill="white"/>
<path d="M1023 126.888C1021.57 125.737 1020.08 124.602 1018.57 123.499L1016.08 125.688C1017.56 126.759 1019.01 127.862 1020.39 128.981L1023 126.888Z" fill="white"/>
<path d="M970.914 101.732C968.965 101.246 966.967 100.791 964.985 100.386L964.011 103.224C965.927 103.614 967.86 104.052 969.761 104.538L970.914 101.732Z" fill="white"/>
<path d="M982.463 105.122C980.579 104.49 978.662 103.873 976.745 103.306L975.429 106.063C977.297 106.614 979.165 107.198 980.985 107.815L982.463 105.122Z" fill="white"/>
<path d="M883.353 134.009L879.779 133.409C879.34 134.998 878.951 136.653 878.658 138.356L882.28 138.713C882.573 137.107 882.93 135.517 883.353 134.009Z" fill="white"/>
<path d="M958.96 99.2834C956.913 98.959 954.867 98.6833 952.869 98.4562L952.3 101.36C954.233 101.57 956.215 101.846 958.197 102.154L958.96 99.2834Z" fill="white"/>
<path d="M993.54 109.372C991.737 108.593 989.902 107.847 988.066 107.133L986.442 109.793C988.228 110.475 990.015 111.204 991.77 111.967L993.54 109.372Z" fill="white"/>
<path d="M1013.91 120.288C1012.33 119.25 1010.71 118.244 1009.07 117.271L1006.86 119.639C1008.45 120.58 1010.03 121.569 1011.57 122.575L1013.91 120.288Z" fill="white"/>
<path d="M1004.05 114.448C1002.36 113.54 1000.62 112.664 998.867 111.821L996.934 114.351C998.64 115.178 1000.33 116.038 1001.97 116.914L1004.05 114.448Z" fill="white"/>
<path d="M946.713 97.9211C944.634 97.7913 942.538 97.7102 940.508 97.694L940.394 100.63C942.343 100.646 944.358 100.727 946.356 100.841L946.713 97.9211Z" fill="white"/>
<path d="M893.017 116.768L890.125 115.017C888.858 116.363 887.656 117.79 886.584 119.266L889.735 120.71C890.726 119.347 891.831 118.017 893.017 116.768Z" fill="white"/>
<path d="M887.023 124.942L883.677 123.791C882.849 125.299 882.085 126.905 881.436 128.527L884.912 129.386C885.545 127.878 886.244 126.37 887.023 124.942Z" fill="white"/>
<path d="M901.284 110.02L899.059 107.717C897.386 108.771 895.778 109.923 894.3 111.139L896.882 113.183C898.263 112.064 899.741 111.01 901.284 110.02Z" fill="white"/>
<path d="M934.435 100.743L934.288 97.8075C932.193 97.9048 930.098 98.0832 928.067 98.3103L928.506 101.214C930.422 101.003 932.42 100.841 934.435 100.743Z" fill="white"/>
<path d="M922.643 102.073L921.879 99.2188C919.816 99.6081 917.77 100.062 915.804 100.581L916.909 103.371C918.76 102.868 920.693 102.43 922.643 102.073Z" fill="white"/>
<path d="M911.387 105.106L909.925 102.429C907.976 103.143 906.091 103.938 904.305 104.814L906.156 107.312C907.813 106.517 909.567 105.771 911.387 105.106Z" fill="white"/>
</g>
<g opacity="0.3">
<path d="M374.636 163.583C372.703 163.454 370.737 163.243 368.804 162.935L368.057 165.822C370.12 166.13 372.199 166.373 374.262 166.503L374.636 163.583Z" fill="white"/>
<path d="M333.186 147.104C331.805 146.017 330.424 144.866 329.092 143.665L326.347 145.66C327.728 146.893 329.157 148.093 330.603 149.229L333.186 147.104Z" fill="white"/>
<path d="M325.26 140.033C324.042 138.816 322.823 137.535 321.67 136.221L318.681 137.956C319.883 139.303 321.134 140.616 322.385 141.882L325.26 140.033Z" fill="white"/>
<path d="M315.221 133.902L318.308 132.28L317.755 131.583C316.862 130.447 315.904 129.296 314.913 128.193L311.908 129.912C312.85 130.983 313.776 132.086 314.637 133.188L315.221 133.902Z" fill="white"/>
<path d="M363.088 161.815C361.236 161.377 359.368 160.841 357.533 160.257L356.103 162.982C358.036 163.615 360.018 164.166 361.983 164.637L363.088 161.815Z" fill="white"/>
<path d="M342.168 153.284C340.609 152.359 339.049 151.37 337.555 150.332L335.135 152.57C336.71 153.657 338.335 154.695 339.959 155.652L342.168 153.284Z" fill="white"/>
<path d="M352.173 158.279C350.451 157.566 348.729 156.787 347.04 155.944L345.058 158.442C346.829 159.334 348.632 160.161 350.451 160.891L352.173 158.279Z" fill="white"/>
<path d="M163.13 157.712C163.016 156.139 162.854 154.484 162.675 152.797L159.037 153.106C159.215 154.76 159.361 156.398 159.475 157.939L163.13 157.712Z" fill="white"/>
<path d="M163.389 167.605C163.438 166.065 163.454 164.394 163.389 162.642L159.734 162.772C159.783 164.475 159.783 166.097 159.734 167.589L163.389 167.605Z" fill="white"/>
<path d="M311.226 124.251C309.959 122.97 308.627 121.705 307.262 120.488L304.517 122.467C305.833 123.651 307.132 124.867 308.351 126.1L311.226 124.251Z" fill="white"/>
<path d="M148.057 184.912C146.449 184.847 144.646 184.571 142.55 184.052L141.413 186.858C143.801 187.458 145.896 187.783 147.797 187.848L148.057 184.912Z" fill="white"/>
<path d="M161.732 133.496L158.078 133.35C157.931 134.972 157.866 136.643 157.85 138.33L161.505 138.281C161.521 136.675 161.586 135.07 161.732 133.496Z" fill="white"/>
<path d="M115.328 173.851C113.298 173.104 111.446 172.472 109.675 171.904L108.278 174.645C110 175.197 111.787 175.813 113.753 176.543L115.328 173.851Z" fill="white"/>
<path d="M124.554 180.809L126.26 178.181L125.837 178.003C124.197 177.338 122.524 176.656 120.834 175.975L119.161 178.603C120.834 179.268 122.491 179.949 124.132 180.614L124.554 180.809Z" fill="white"/>
<path d="M162.09 147.915C161.895 146.293 161.732 144.671 161.635 143.114L157.98 143.309C158.078 144.914 158.24 146.585 158.435 148.256L162.09 147.915Z" fill="white"/>
<path d="M159.621 182.609L156.437 181.214C155.495 182.576 154.358 183.533 152.994 184.133L154.699 186.712C156.681 185.852 158.338 184.458 159.621 182.609Z" fill="white"/>
<path d="M162.983 172.617L159.345 172.358C159.117 174.077 158.793 175.634 158.37 176.997L161.928 177.645C162.382 176.153 162.74 174.466 162.983 172.617Z" fill="white"/>
<path d="M137.061 182.382C135.485 181.83 133.714 181.165 131.651 180.354L129.978 182.998C132.106 183.842 133.926 184.523 135.55 185.074L137.061 182.382Z" fill="white"/>
<path d="M66.2607 188.253L62.8983 187.15C62.1674 188.545 61.4039 190.118 60.6405 191.821L64.0841 192.762C64.8151 191.124 65.546 189.599 66.2607 188.253Z" fill="white"/>
<path d="M71.9941 179.965L69.0703 178.246C67.8683 179.543 66.715 181.003 65.6267 182.576L68.8267 183.955C69.8338 182.495 70.8896 181.149 71.9941 179.965Z" fill="white"/>
<path d="M62.1348 197.401L58.6424 196.558C57.8628 198.536 57.2455 200.239 56.8557 201.326L60.3805 202.072C60.7541 201.018 61.3713 199.331 62.1348 197.401Z" fill="white"/>
<path d="M103.812 170.249C101.685 169.73 99.6379 169.341 97.6887 169.065L97.0065 171.969C98.7933 172.212 100.71 172.585 102.692 173.055L103.812 170.249Z" fill="white"/>
<path d="M91.2741 171.58L91.3066 168.644C90.8518 168.644 90.3808 168.66 89.9259 168.676C88.1717 168.757 86.4498 168.952 84.8255 169.276L85.6377 172.131C87.4245 171.774 89.3574 171.596 91.2741 171.58Z" fill="white"/>
<path d="M80.4238 173.785L78.6858 171.223C76.8178 172.05 75.031 173.104 73.3742 174.353L75.8269 176.494C77.2888 175.407 78.832 174.499 80.4238 173.785Z" fill="white"/>
<path d="M303.057 116.903C301.627 115.752 300.133 114.616 298.622 113.513L296.137 115.703C297.615 116.773 299.061 117.876 300.441 118.995L303.057 116.903Z" fill="white"/>
<path d="M250.968 91.7469C249.019 91.2603 247.021 90.8061 245.039 90.4007L244.064 93.2391C245.981 93.6283 247.914 94.0663 249.814 94.5529L250.968 91.7469Z" fill="white"/>
<path d="M262.516 95.1369C260.631 94.5043 258.715 93.8879 256.798 93.3203L255.482 96.0776C257.35 96.6291 259.218 97.2129 261.037 97.8293L262.516 95.1369Z" fill="white"/>
<path d="M163.405 124.024L159.832 123.423C159.393 125.013 159.003 126.667 158.711 128.37L162.333 128.727C162.626 127.121 162.983 125.532 163.405 124.024Z" fill="white"/>
<path d="M239.013 89.2981C236.966 88.9737 234.919 88.698 232.921 88.4709L232.353 91.3742C234.286 91.585 236.268 91.8608 238.249 92.1689L239.013 89.2981Z" fill="white"/>
<path d="M273.593 99.3862C271.79 98.6077 269.954 97.8616 268.119 97.1479L266.494 99.8079C268.281 100.489 270.068 101.219 271.822 101.981L273.593 99.3862Z" fill="white"/>
<path d="M293.961 110.302C292.385 109.264 290.761 108.259 289.12 107.286L286.911 109.654C288.503 110.594 290.079 111.584 291.622 112.589L293.961 110.302Z" fill="white"/>
<path d="M284.102 104.463C282.412 103.555 280.674 102.679 278.92 101.835L276.987 104.366C278.693 105.193 280.382 106.052 282.022 106.928L284.102 104.463Z" fill="white"/>
<path d="M226.767 87.9357C224.687 87.8059 222.592 87.7249 220.562 87.7086L220.448 90.6444C222.397 90.6606 224.411 90.7417 226.409 90.8552L226.767 87.9357Z" fill="white"/>
<path d="M173.069 106.783L170.178 105.031C168.911 106.378 167.709 107.805 166.637 109.281L169.788 110.724C170.779 109.362 171.884 108.032 173.069 106.783Z" fill="white"/>
<path d="M167.076 114.957L163.73 113.805C162.902 115.314 162.138 116.919 161.488 118.541L164.965 119.401C165.598 117.893 166.296 116.384 167.076 114.957Z" fill="white"/>
<path d="M181.337 100.035L179.112 97.7319C177.439 98.7861 175.83 99.9377 174.352 101.154L176.935 103.198C178.316 102.079 179.794 101.024 181.337 100.035Z" fill="white"/>
<path d="M214.487 90.7578L214.341 87.8221C212.246 87.9194 210.15 88.0978 208.12 88.3249L208.558 91.2282C210.475 91.0174 212.473 90.8551 214.487 90.7578Z" fill="white"/>
<path d="M202.695 92.0881L201.932 89.2335C199.869 89.6228 197.822 90.0769 195.857 90.5959L196.961 93.3857C198.813 92.8829 200.746 92.4449 202.695 92.0881Z" fill="white"/>
<path d="M191.439 95.1203L189.978 92.4441C188.028 93.1578 186.144 93.9525 184.357 94.8284L186.209 97.3262C187.866 96.5314 189.62 95.7853 191.439 95.1203Z" fill="white"/>
</g>
<g opacity="0.5">
<path d="M63.661 202.524L66.1631 186.354L10.5513 229.277L34.2972 222.583L63.661 202.524Z" fill="#D8D8D8"/>
<path d="M96.8252 209.36L68.5944 203.043L0.000236511 245L95.527 214.546L96.8252 209.36Z" fill="white"/>
<path d="M26.7913 193.709L13.9033 210.209L0.000335693 245L61.3008 201.417L26.7913 193.709Z" fill="white"/>
<path d="M66.1635 186.354L61.301 201.417L0.000564575 245L68.5947 203.043L66.1635 186.354Z" fill="#C9C9BF"/>
<path d="M26.7906 193.708L13.9027 210.208L29.3398 198.823L26.7906 193.708Z" fill="#C9C9BF"/>
<path d="M96.8252 209.36L77.0212 220.439L95.9754 214.499L96.8252 209.36Z" fill="#C9C9BF"/>
</g>
<path opacity="0.5" d="M1259.01 40.7116L1203.05 4.52352C1199.21 2.03558 1194.06 3.16548 1191.57 7.00675L1164.35 48.8889C1161.86 52.7302 1162.97 57.9087 1166.82 60.3966L1222.77 96.5847C1226.61 99.0727 1231.8 97.9654 1234.29 94.1241L1261.47 52.2193C1263.96 48.378 1262.85 43.1996 1259.01 40.7116ZM1249.95 54.6799L1210.65 54.0462L1193.99 18.4918L1198.52 11.5077L1215.18 47.0621L1254.48 47.6958L1249.95 54.6799Z" fill="white"/>
</svg>
